/* XPM */
static char * Night_xpm[] = {
"32 32 256 2",
"  	c #000000",
". 	c #080000",
"+ 	c #000018",
"@ 	c #100000",
"# 	c #180000",
"$ 	c #000038",
"% 	c #200800",
"& 	c #280000",
"* 	c #281000",
"= 	c #300000",
"- 	c #282008",
"; 	c #302000",
"> 	c #382810",
", 	c #303000",
"' 	c #383000",
") 	c #202020",
"! 	c #282828",
"~ 	c #303030",
"{ 	c #383838",
"] 	c #000040",
"^ 	c #000048",
"/ 	c #000058",
"( 	c #000060",
"_ 	c #000070",
": 	c #000078",
"< 	c #280040",
"[ 	c #300058",
"} 	c #307800",
"| 	c #387000",
"1 	c #004040",
"2 	c #005858",
"3 	c #006868",
"4 	c #007070",
"5 	c #007878",
"6 	c #400000",
"7 	c #480000",
"8 	c #500000",
"9 	c #403018",
"0 	c #483818",
"a 	c #503818",
"b 	c #600000",
"c 	c #680000",
"d 	c #700000",
"e 	c #400040",
"f 	c #580058",
"g 	c #400070",
"h 	c #680070",
"i 	c #404000",
"j 	c #484000",
"k 	c #484800",
"l 	c #485800",
"m 	c #505000",
"n 	c #585800",
"o 	c #584020",
"p 	c #406000",
"q 	c #684820",
"r 	c #704828",
"s 	c #686800",
"t 	c #707000",
"u 	c #404040",
"v 	c #484848",
"w 	c #505050",
"x 	c #606060",
"y 	c #707070",
"z 	c #787878",
"A 	c #000088",
"B 	c #000098",
"C 	c #0000A0",
"D 	c #0000A8",
"E 	c #0000B0",
"F 	c #0000B8",
"G 	c #0000C8",
"H 	c #0000D0",
"I 	c #0000E0",
"J 	c #0000E8",
"K 	c #0000F8",
"L 	c #500080",
"M 	c #600098",
"N 	c #7000B0",
"O 	c #009800",
"P 	c #108800",
"Q 	c #00A000",
"R 	c #00B000",
"S 	c #208000",
"T 	c #00C000",
"U 	c #00D000",
"V 	c #00D800",
"W 	c #008080",
"X 	c #008888",
"Y 	c #009898",
"Z 	c #00A0A0",
"` 	c #00A8A8",
" .	c #00B0B0",
"..	c #20B0B0",
"+.	c #00C8C8",
"@.	c #00E0E0",
"#.	c #00F8F8",
"$.	c #20F8F8",
"%.	c #58B8F8",
"&.	c #48C0C0",
"*.	c #40F8F8",
"=.	c #58F8F8",
"-.	c #70C8C8",
";.	c #78F8F8",
">.	c #800000",
",.	c #880000",
"'.	c #980000",
").	c #A00000",
"!.	c #B00000",
"~.	c #B80000",
"{.	c #984800",
"].	c #805028",
"^.	c #885830",
"/.	c #905830",
"(.	c #986038",
"_.	c #B05000",
":.	c #A06038",
"<.	c #A86840",
"[.	c #B07040",
"}.	c #B87848",
"|.	c #C80000",
"1.	c #D00000",
"2.	c #E00000",
"3.	c #E80000",
"4.	c #C86000",
"5.	c #E06800",
"6.	c #F87800",
"7.	c #C87848",
"8.	c #800080",
"9.	c #980088",
"0.	c #980098",
"a.	c #B000B0",
"b.	c #808000",
"c.	c #909000",
"d.	c #989800",
"e.	c #A8A800",
"f.	c #F88820",
"g.	c #D08050",
"h.	c #D88850",
"i.	c #E88858",
"j.	c #F89840",
"k.	c #F09058",
"l.	c #F89860",
"m.	c #F8A858",
"n.	c #F8A070",
"o.	c #C0C000",
"p.	c #D0D000",
"q.	c #E0E000",
"r.	c #E8E800",
"s.	c #F8F800",
"t.	c #888888",
"u.	c #989898",
"v.	c #A8A8A8",
"w.	c #B0B0B0",
"x.	c #98D8D8",
"y.	c #98F8F8",
"z.	c #B8E8E8",
"A.	c #B8F8F8",
"B.	c #F8B080",
"C.	c #F8B890",
"D.	c #F8C0A0",
"E.	c #C0C0C0",
"F.	c #D0D0D0",
"G.	c #D8D8D8",
"H.	c #D8F0F0",
"I.	c #D8F8F8",
"J.	c #F8D8C0",
"K.	c #E8E8E8",
"L.	c #F8F8F8",
"M.	c #000000",
"N.	c #000000",
"O.	c #000000",
"P.	c #000000",
"Q.	c #000000",
"R.	c #000000",
"S.	c #000000",
"T.	c #000000",
"U.	c #000000",
"V.	c #000000",
"W.	c #000000",
"X.	c #000000",
"Y.	c #000000",
"Z.	c #000000",
"`.	c #000000",
" +	c #000000",
".+	c #000000",
"++	c #000000",
"@+	c #000000",
"#+	c #000000",
"$+	c #000000",
"%+	c #000000",
"&+	c #000000",
"*+	c #000000",
"=+	c #000000",
"-+	c #000000",
";+	c #000000",
">+	c #000000",
",+	c #000000",
"'+	c #000000",
")+	c #000000",
"!+	c #000000",
"~+	c #000000",
"{+	c #000000",
"]+	c #000000",
"^+	c #000000",
"/+	c #000000",
"(+	c #000000",
"_+	c #000000",
":+	c #000000",
"<+	c #000000",
"[+	c #000000",
"}+	c #000000",
"|+	c #000000",
"1+	c #000000",
"2+	c #000000",
"3+	c #000000",
"4+	c #000000",
"5+	c #000000",
"6+	c #000000",
"7+	c #000000",
"8+	c #000000",
"9+	c #000000",
"0+	c #000000",
"a+	c #000000",
"b+	c #000000",
"c+	c #000000",
"d+	c #000000",
"e+	c #000000",
"f+	c #000000",
"g+	c #000000",
"h+	c #000000",
"i+	c #000000",
"j+	c #000000",
"k+	c #000000",
"l+	c #000000",
"m+	c #000000",
"n+	c #000000",
"o+	c #000000",
"p+	c #000000",
"q+	c #000000",
"r+	c #000000",
"s+	c #000000",
"t+	c #000000",
"u+	c #000000",
"v+	c #000000",
"w+	c #000000",
"x+	c #000000",
"y+	c #000000",
"z+	c #000000",
"A+	c #000000",
"B+	c #000000",
"C+	c #000000",
"D+	c #000000",
"E+	c #000000",
"F+	c #000000",
"G+	c #000000",
"    $           +   / +     $             $     A           $   ",
"$             +                                   A           K ",
"  :                                               +             ",
"                      $                   /         K A         ",
"                                                      +         ",
"      + + $       $         D                                   ",
"      +   + + ^             $     + +     +     & & +   +       ",
"              +           $   +   + +     +   & &               ",
"            +   + + + + +   + +             & & &               ",
"      #                     +             & & & &   & & &   &   ",
"  # # # # &             # # # #   & # +   & 7 8 = 6 6 =   & &   ",
"      # 6 & # #     & & = =   # # # #   = 6     & = = #         ",
"          = 6 = =           & = 7 6 =             # #           ",
"                            +               # # # @ @           ",
"                = =               = =     6 =                   ",
"# # # # # # # # # # # # # # # = # # 6 6 = & = = # # # # # # # # ",
"& & & & & & & & & & & & & & & & & & & & & & & & & & & & & & & & ",
"= = = = = = = = = = = = = = = = = = = = = = = = = = = = = = = = ",
"7 7 7 7 7 7 7 7 7 7 7 7 7 7 7 7 7 7 7 7 7 7 7 7 7 7 7 7 7 7 7 7 ",
"% % % % % % % % % % % % % % % % % % % % % % % % % % % % % % % % ",
"# # # # # # # # # # # # # # # # # # # # # # # # # # # # # # # # ",
"% % % % % % % % % % % % % % % % % % % % % % % % % % % % % % % % ",
"* * * * * * * * * * * * * * * * * * * * * * * * * * * * * * * * ",
"; ; ; ; ; ; ; ; ; ; ; ; ; ; ; ; ; ; ; ; ; ; ; ; ; ; ; ; ; ; ; ; ",
"' ' ' ' ' ' ' ' ' ' ' ' ' ' ' ' ' ' ' ' ' ' ' ' ' ' ' ' ' ' ' ' ",
"i i i i i i i i i i i i i i i i i i i i i i i i i i i i i i i i ",
"k k k k k k k k k k k k k k k k k k k k k k k k k k k k k k k k ",
"n n n n n n n n n n n n n n n n n n n n n n n n n n n n n n n n ",
"s s s s s s s s s s s s s s s s s s s s s s s s s s s s s s s s ",
"t t t t t t t t t t t t t t t t t t t t t t t t t t t t t t t t ",
"b.b.b.b.b.b.b.b.b.b.b.b.b.b.b.b.b.b.b.b.b.b.b.b.b.b.b.b.b.b.b.b.",
"c.c.c.c.c.c.c.c.c.c.c.c.c.c.c.c.c.c.c.c.c.c.c.c.c.c.c.c.c.c.c.c."};
