/* XPM */
static char * PIERRES2_xpm[] = {
"32 32 256 2",
"  	c #000000",
". 	c #080000",
"+ 	c #000018",
"@ 	c #100000",
"# 	c #180000",
"$ 	c #000038",
"% 	c #200800",
"& 	c #280000",
"* 	c #281000",
"= 	c #300000",
"- 	c #282008",
"; 	c #302000",
"> 	c #382810",
", 	c #303000",
"' 	c #383000",
") 	c #202020",
"! 	c #282828",
"~ 	c #303030",
"{ 	c #383838",
"] 	c #000040",
"^ 	c #000048",
"/ 	c #000058",
"( 	c #000060",
"_ 	c #000070",
": 	c #000078",
"< 	c #280040",
"[ 	c #300058",
"} 	c #307800",
"| 	c #387000",
"1 	c #004040",
"2 	c #005858",
"3 	c #006868",
"4 	c #007070",
"5 	c #007878",
"6 	c #400000",
"7 	c #480000",
"8 	c #500000",
"9 	c #403018",
"0 	c #483818",
"a 	c #503818",
"b 	c #600000",
"c 	c #680000",
"d 	c #700000",
"e 	c #400040",
"f 	c #580058",
"g 	c #400070",
"h 	c #680070",
"i 	c #404000",
"j 	c #484000",
"k 	c #484800",
"l 	c #485800",
"m 	c #505000",
"n 	c #585800",
"o 	c #584020",
"p 	c #406000",
"q 	c #684820",
"r 	c #704828",
"s 	c #686800",
"t 	c #707000",
"u 	c #404040",
"v 	c #484848",
"w 	c #505050",
"x 	c #606060",
"y 	c #707070",
"z 	c #787878",
"A 	c #000088",
"B 	c #000098",
"C 	c #0000A0",
"D 	c #0000A8",
"E 	c #0000B0",
"F 	c #0000B8",
"G 	c #0000C8",
"H 	c #0000D0",
"I 	c #0000E0",
"J 	c #0000E8",
"K 	c #0000F8",
"L 	c #500080",
"M 	c #600098",
"N 	c #7000B0",
"O 	c #009800",
"P 	c #108800",
"Q 	c #00A000",
"R 	c #00B000",
"S 	c #208000",
"T 	c #00C000",
"U 	c #00D000",
"V 	c #00D800",
"W 	c #008080",
"X 	c #008888",
"Y 	c #009898",
"Z 	c #00A0A0",
"` 	c #00A8A8",
" .	c #00B0B0",
"..	c #20B0B0",
"+.	c #00C8C8",
"@.	c #00E0E0",
"#.	c #00F8F8",
"$.	c #20F8F8",
"%.	c #58B8F8",
"&.	c #48C0C0",
"*.	c #40F8F8",
"=.	c #58F8F8",
"-.	c #70C8C8",
";.	c #78F8F8",
">.	c #800000",
",.	c #880000",
"'.	c #980000",
").	c #A00000",
"!.	c #B00000",
"~.	c #B80000",
"{.	c #984800",
"].	c #805028",
"^.	c #885830",
"/.	c #905830",
"(.	c #986038",
"_.	c #B05000",
":.	c #A06038",
"<.	c #A86840",
"[.	c #B07040",
"}.	c #B87848",
"|.	c #C80000",
"1.	c #D00000",
"2.	c #E00000",
"3.	c #E80000",
"4.	c #C86000",
"5.	c #E06800",
"6.	c #F87800",
"7.	c #C87848",
"8.	c #800080",
"9.	c #980088",
"0.	c #980098",
"a.	c #B000B0",
"b.	c #808000",
"c.	c #909000",
"d.	c #989800",
"e.	c #A8A800",
"f.	c #F88820",
"g.	c #D08050",
"h.	c #D88850",
"i.	c #E88858",
"j.	c #F89840",
"k.	c #F09058",
"l.	c #F89860",
"m.	c #F8A858",
"n.	c #F8A070",
"o.	c #C0C000",
"p.	c #D0D000",
"q.	c #E0E000",
"r.	c #E8E800",
"s.	c #F8F800",
"t.	c #888888",
"u.	c #989898",
"v.	c #A8A8A8",
"w.	c #B0B0B0",
"x.	c #98D8D8",
"y.	c #98F8F8",
"z.	c #B8E8E8",
"A.	c #B8F8F8",
"B.	c #F8B080",
"C.	c #F8B890",
"D.	c #F8C0A0",
"E.	c #C0C0C0",
"F.	c #D0D0D0",
"G.	c #D8D8D8",
"H.	c #D8F0F0",
"I.	c #D8F8F8",
"J.	c #F8D8C0",
"K.	c #E8E8E8",
"L.	c #F8F8F8",
"M.	c #000000",
"N.	c #000000",
"O.	c #000000",
"P.	c #000000",
"Q.	c #000000",
"R.	c #000000",
"S.	c #000000",
"T.	c #000000",
"U.	c #000000",
"V.	c #000000",
"W.	c #000000",
"X.	c #000000",
"Y.	c #000000",
"Z.	c #000000",
"`.	c #000000",
" +	c #000000",
".+	c #000000",
"++	c #000000",
"@+	c #000000",
"#+	c #000000",
"$+	c #000000",
"%+	c #000000",
"&+	c #000000",
"*+	c #000000",
"=+	c #000000",
"-+	c #000000",
";+	c #000000",
">+	c #000000",
",+	c #000000",
"'+	c #000000",
")+	c #000000",
"!+	c #000000",
"~+	c #000000",
"{+	c #000000",
"]+	c #000000",
"^+	c #000000",
"/+	c #000000",
"(+	c #000000",
"_+	c #000000",
":+	c #000000",
"<+	c #000000",
"[+	c #000000",
"}+	c #000000",
"|+	c #000000",
"1+	c #000000",
"2+	c #000000",
"3+	c #000000",
"4+	c #000000",
"5+	c #000000",
"6+	c #000000",
"7+	c #000000",
"8+	c #000000",
"9+	c #000000",
"0+	c #000000",
"a+	c #000000",
"b+	c #000000",
"c+	c #000000",
"d+	c #000000",
"e+	c #000000",
"f+	c #000000",
"g+	c #000000",
"h+	c #000000",
"i+	c #000000",
"j+	c #000000",
"k+	c #000000",
"l+	c #000000",
"m+	c #000000",
"n+	c #000000",
"o+	c #000000",
"p+	c #000000",
"q+	c #000000",
"r+	c #000000",
"s+	c #000000",
"t+	c #000000",
"u+	c #000000",
"v+	c #000000",
"w+	c #000000",
"x+	c #000000",
"y+	c #000000",
"z+	c #000000",
"A+	c #000000",
"B+	c #000000",
"C+	c #000000",
"D+	c #000000",
"E+	c #000000",
"F+	c #000000",
"G+	c #000000",
"! ! ! ! ! ! ! ! ! ! ! ! ! ! ! ! ! ! ! ! ! ! ! ! ! ! ! ! ! ! ! ! ",
"u u u u u { t.t.t.t.t.z z x ~ t.x x x x z ~ ~ x x x w v { { { { ",
"t.t.z x ) { t.z z z z y z w ~ z x z z x w ~ ~ u.t.t.t.u.u.t.t.t.",
"z z z w ) { t.x y x y x z v ~ w x x z z v ~ ~ u.x x x x x y z x ",
"y z y { ) { t.y x x x x z u ) u w v u { ~ ) ~ t.x x y y z y z w ",
"w w u ~ ) { z z y x z z z u ) { ! ) ) ) ! ! u t.x x x x w v v v ",
") ) ) ! ! u z x x y x x z u ) { z u.u.t.y u u x v u { ~ ~ ~ ! ! ",
"~ ~ ~ ~ ~ u x z z x x x x u ) { u.z z y x ~ ~ ! ! ! ! ! ~ ~ ~ ~ ",
"y y y y y ) w t.x y w x x u ) { u.z y x w ~ ~ z w { w y y y y y ",
"z x x z w ) u y x z z x w u ) { y w w w u ~ ~ t.x { u.t.t.z z z ",
"z x x z u ) u v u u { ~ ) ) ) ! ~ ~ ) ) ) ) v z x { u.x x x w x ",
"x w x z u ) u { ) ) ) ) { { { { x t.z y u ~ t.z w { t.x x x w x ",
"x z x x { ) u.z y z y u u.u.u.t.t.t.t.t.u ~ u.z w { t.z x x z z ",
"v v v { ~ ) u.z x x x { u.z z w z x z z { ~ u.z v u ~ { { { { u ",
") ) ) ! ! { u.y y y w ~ u.y z x x x x x { ~ u.z u u ~ ~ ~ ! ! ) ",
"v z u.t.t.w u.z y z w ) t.t.x x w x x x ~ ~ u.z u { u.z x w v { ",
"v z z z z w u.z z x v ) u u.z x x w x w ~ ~ u.z u { t.z x y w ~ ",
"v z z z w u u.z y y v ) u u.z z x x x v ~ { t.w { { t.z x y w ~ ",
"v z z x x u t.z z y v ) { z z z z z x u ~ { w ~ { { w w w w w ~ ",
"v z z x w u y z z z v ) ~ w x w v v u { ~ { ~ { u { { ! ! ! ~ ~ ",
"v z z y y u u z z y v ) ! { ~ ~ ~ ~ ~ ~ ~ { u w w w w w w w w ~ ",
"v z z y y ) { z y x v ! ) w t.t.t.t.t.t.t.t.u.u.u.u.u.u.u.t.y ! ",
"v y x x x ) { y x w v ~ ) u t.z z z z z z z z y x x w w x x w ! ",
"{ x w w w ! { x w w v ~ ) { u.z z z z z z z x x x w w w x x w ! ",
"{ ) ) u u ~ { v v v u ~ ) ~ u.y y y x x w y z x w w w x x w w ) ",
"{ { { { ! ~ ~ ) ) ) ) ) ) ! y w w w y y x w x w w w x x w w v ) ",
"{ t.u.u.t.z w u ~ ~ ~ ~ ~ ~ ~ ~ ~ ~ { u u u u u u u u u u u u ! ",
"{ u.z z x t.u.u.u.u.u.u.t.t.z z x u ~ ~ ~ ~ ~ ! ! ! ) ) ) ! ~ { ",
"{ t.z y x x z x w x w x z z z z v ~ { u.z x w u { { { { { { u u ",
"{ x v v v v v v v v v v v v v v u ) { z z z z u u.t.z y y x w ) ",
"{ ) ) ) ) ) ) ) ) ) ) ) ) ) ) ) ) ) { u v w v { z y z y y z x ) ",
"u u { { { { ~ ~ ~ ~ ~ ~ ~ ~ ~ ~ ~ ~ ~ u u ~ ~ ~ u ) ) ) ) ) ) ) "};
